<svg xmlns="http://www.w3.org/2000/svg" width="1920" height="1520.837" viewBox="0 0 1920 1520.837">
  <g id="Contact_us_group" data-name="Contact us group" transform="translate(0 -1045)">
    <g id="Rectangle_8" data-name="Rectangle 8" transform="translate(0 1318)" stroke="#707070" stroke-width="1">
      <rect width="1920" height="973" stroke="none"/>
      <rect x="0.5" y="0.5" width="1919" height="972" fill="none"/>
    </g>
    <path id="wave" d="M0,192l29.067-10.7C58.133,171,116,149,174.667,160c58,11,116,53,174.667,69.3,58,15.7,116,5.7,174.667-16C581.867,192,640,160,698.667,170.7c57.733,10.3,116,64.3,174.667,48,57.6-15.7,116-101.7,173.333-144,58.8-42.7,117.333-42.7,174.667,0C1280,117,1338.667,203,1396,213.3c58.533,10.7,117.333-53.3,174.667-96,58.4-42.3,116-64.3,174.667-74.6C1803.6,32,1861.333,32,1890.667,32H1920V320H0Z" transform="translate(0 1013)"/>
    <path id="wave-2" data-name="wave" d="M0,160l29.067-10.7C58.133,139,116,117,174.667,128c58,11,116,53,174.667,69.3,58,15.7,116,5.7,174.667-16C581.867,160,640,128,698.667,138.7c57.733,10.3,116,64.3,174.667,48,57.6-15.7,116-101.7,173.333-144C1105.467,0,1164,0,1221.333,42.7,1280,85,1338.667,171,1396,181.3c58.533,10.7,117.333-53.3,174.667-96,58.4-42.3,116-64.3,174.667-74.6C1803.6,0,1861.333,0,1890.667,0H1920V288H0Z" transform="translate(1920 2565.837) rotate(180)"/>
  </g>
</svg>
