<svg xmlns="http://www.w3.org/2000/svg" width="1920" height="1345" viewBox="0 0 1920 1345">
  <g id="SERVICES_GROUP" data-name="SERVICES GROUP" transform="translate(0 -1045)">
    <g id="Rectangle_8" data-name="Rectangle 8" transform="translate(0 1328)" stroke="#707070" stroke-width="1">
      <rect width="1920" height="788" stroke="none"/>
      <rect x="0.5" y="0.5" width="1919" height="787" fill="none"/>
    </g>
    <path id="wave" d="M0,192l29.067-10.7C58.133,171,116,149,174.667,160c58,11,116,53,174.667,69.3,58,15.7,116,5.7,174.667-16C581.867,192,640,160,698.667,170.7c57.733,10.3,116,64.3,174.667,48,57.6-15.7,116-101.7,173.333-144,58.8-42.7,117.333-42.7,174.667,0C1280,117,1338.667,203,1396,213.3c58.533,10.7,117.333-53.3,174.667-96,58.4-42.3,116-64.3,174.667-74.6C1803.6,32,1861.333,32,1890.667,32H1920V320H0Z" transform="translate(0 1013)"/>
    <path id="wave-2" data-name="wave" d="M0,192l29.067-10.7C58.133,171,116,149,174.667,160c58,11,116,53,174.667,69.3,58,15.7,116,5.7,174.667-16C581.867,192,640,160,698.667,170.7c57.733,10.3,116,64.3,174.667,48,57.6-15.7,116-101.7,173.333-144,58.8-42.7,117.333-42.7,174.667,0C1280,117,1338.667,203,1396,213.3c58.533,10.7,117.333-53.3,174.667-96,58.4-42.3,116-64.3,174.667-74.6C1803.6,32,1861.333,32,1890.667,32H1920V320H0Z" transform="translate(1920 2422) rotate(180)"/>
  </g>
</svg>
